<svg width="288" height="97" xmlns="http://www.w3.org/2000/svg" xmlns:xlink="http://www.w3.org/1999/xlink" xml:space="preserve" overflow="hidden"><g transform="translate(-1761 -661)"><path d="M122.041 49.7441C122.041 63.2082 111.508 73.1296 98.5815 73.1296 85.6552 73.1296 75.1223 63.2082 75.1223 49.7441 75.1223 36.1852 85.6552 26.3587 98.5815 26.3587 111.508 26.3587 122.041 36.1852 122.041 49.7441ZM111.771 49.7441C111.771 41.3304 105.667 35.5737 98.5815 35.5737 91.4963 35.5737 85.3916 41.3304 85.3916 49.7441 85.3916 58.0735 91.4963 63.9146 98.5815 63.9146 105.667 63.9146 111.771 58.0629 111.771 49.7441Z" fill="#EA4335" transform="matrix(1.00425 0 0 1 1761 661)"/><path d="M172.649 49.7441C172.649 63.2082 162.117 73.1296 149.19 73.1296 136.264 73.1296 125.731 63.2082 125.731 49.7441 125.731 36.1958 136.264 26.3587 149.19 26.3587 162.117 26.3587 172.649 36.1852 172.649 49.7441ZM162.38 49.7441C162.38 41.3304 156.275 35.5737 149.19 35.5737 142.105 35.5737 136 41.3304 136 49.7441 136 58.0735 142.105 63.9146 149.19 63.9146 156.275 63.9146 162.38 58.0629 162.38 49.7441Z" fill="#FBBC05" transform="matrix(1.00425 0 0 1 1761 661)"/><path d="M221.149 27.7715 221.149 69.7557C221.149 87.0259 210.964 94.0795 198.924 94.0795 187.59 94.0795 180.768 86.4987 178.195 80.2991L187.136 76.5773C188.728 80.3835 192.629 84.875 198.913 84.875 206.621 84.875 211.397 80.1199 211.397 71.1685L211.397 67.8051 211.038 67.8051C208.74 70.6413 204.312 73.119 198.723 73.119 187.031 73.119 176.319 62.934 176.319 49.8285 176.319 36.628 187.031 26.3587 198.723 26.3587 204.301 26.3587 208.729 28.8364 211.038 31.5883L211.397 31.5883 211.397 27.7821 221.149 27.7821ZM212.124 49.8285C212.124 41.594 206.631 35.5737 199.641 35.5737 192.556 35.5737 186.62 41.594 186.62 49.8285 186.62 57.9786 192.556 63.9146 199.641 63.9146 206.631 63.9146 212.124 57.9786 212.124 49.8285Z" fill="#4285F4" transform="matrix(1.00425 0 0 1 1761 661)"/><path d="M237.228 3.16304 237.228 71.6957 227.212 71.6957 227.212 3.16304 237.228 3.16304Z" fill="#34A853" transform="matrix(1.00425 0 0 1 1761 661)"/><path d="M276.26 57.4409 284.231 62.7548C281.659 66.561 275.459 73.119 264.747 73.119 251.462 73.119 241.541 62.8497 241.541 49.7336 241.541 35.8267 251.546 26.3482 263.598 26.3482 275.733 26.3482 281.669 36.006 283.609 41.225L284.674 43.882 253.413 56.8294C255.806 61.5212 259.528 63.9146 264.747 63.9146 269.976 63.9146 273.603 61.342 276.26 57.4409ZM251.726 49.0272 272.623 40.3499C271.474 37.4293 268.015 35.3945 263.945 35.3945 258.726 35.3945 251.462 40.002 251.726 49.0272Z" fill="#EA4335" transform="matrix(1.00425 0 0 1 1761 661)"/><path d="M37.2079 43.6605 37.2079 33.7391 70.6413 33.7391C70.9682 35.4683 71.1368 37.5137 71.1368 39.7278 71.1368 47.1715 69.102 56.376 62.5439 62.934 56.1651 69.5764 48.015 73.119 37.2185 73.119 17.207 73.119 0.379565 56.8188 0.379565 36.8073 0.379565 16.7958 17.207 0.495544 37.2185 0.495544 48.2891 0.495544 56.1757 4.83946 62.1011 10.5013L55.1002 17.5022C50.8512 13.5167 45.0945 10.417 37.2079 10.417 22.5947 10.417 11.1655 22.194 11.1655 36.8073 11.1655 51.4205 22.5947 63.1976 37.2079 63.1976 46.6865 63.1976 52.0848 59.3914 55.543 55.9332 58.3476 53.1286 60.1927 49.1221 60.9202 43.65L37.2079 43.6605Z" fill="#4285F4" transform="matrix(1.00425 0 0 1 1761 661)"/></g></svg>